<svg id="Calque_1" data-name="Calque 1" xmlns="http://www.w3.org/2000/svg" viewBox="0 0 432 477.96"><defs><style>.cls-1{fill:#1878f3;}</style></defs><path class="cls-1" d="M107.71,217.25c-30.19-10.35-41.31-33.7-42.78-63.34-.54-11.06-.68-22.16,1.35-33.18,1.57-8.53,4.76-10.35,12-5.76a94.67,94.67,0,0,0,35.59,13.74c12.66,3.79,24.65,8.81,33.53,19.15,12.56,14.6,12.66,31.49,8.36,48.94-1.32,5.34-.49,9,3.7,13a185.23,185.23,0,0,1,31.86,40.64c2.68,4.57,5.41,9.12,9.13,15.39,0-35.73.16-69.41-.13-103.08-.06-7.18-5.14-10.8-12.05-11.84-9.29-1.39-10.68-3-10.73-12.36q-.15-33-.26-65.9.13-24.81.28-49.61a39.76,39.76,0,0,1,.21-6.65c.86-4.86,3.62-8.48,8.77-8.46,5.55,0,8.57,3.73,8.67,9.13.23,12.34.12,24.69.18,37,0,4.69.15,9.37.23,14q0,16.56-.08,33.11c0,5,.71,9.81,7.16,9.7,6-.09,6.68-4.7,6.69-9.41q0-17.3,0-34.58c.15-15.45.27-30.91.46-46.36.1-7.95,3.11-12,8.7-12s8.8,4.27,8.91,12.15c.21,15.21.19,30.43.27,45.65-.05,12-.07,24.06-.16,36.09,0,4.73,1.23,8.52,6.77,8.44s6.88-3.75,6.84-8.52c-.1-11.54-.13-23.08-.19-34.62q.09-21.81.18-43.6a30.43,30.43,0,0,1,.29-6.63c1.16-5.06,4.24-8.69,9.72-8.28,5.22.4,7.66,4.27,7.72,9.24.15,13.55.06,27.1.11,40.65,0,4.93.14,9.85.22,14.77,0,21.71-.2,43.42,0,65.12.06,6.95-2,11-9.44,12.4-8.89,1.65-11.6,5.73-11.61,15.15q0,44.77,0,89.54c0,2.53.23,5.05.44,9.36,9.5-15.13,16.74-29.85,28.25-40.85s14.59-21.32,10.78-37.22c-5.77-24.14,8.3-51.65,40.85-52.74,1.72-.06,3.43-.33,5.15-.5,13.19-.58,23.22-7.08,31.65-16.73,2.17-2.48,4.07-6.09,8.33-4.86s4.68,5.19,5.27,8.88a135.33,135.33,0,0,1-2.1,54.84c-5.17,20.84-18.82,34-38.48,41.45a52.69,52.69,0,0,1-26.22,1.6c-4.32-.84-7.44,0-10.31,3.51-17.93,21.75-32.64,45.41-43.19,71.59-5.65,11.26-9.8,23.15-10.28,35.67-.48,12.75-3.61,23-16.45,28.1h-7.41c-12.2-6.44-14.43-17.41-15.23-30.05-.75-11.65-4.81-22.86-9.68-33.6a270.94,270.94,0,0,0-43.16-72c-2.82-3.36-5.64-4.58-10.16-3.82A62.84,62.84,0,0,1,107.71,217.25Z"/><path class="cls-1" d="M284.78,385.28c.44-10.21.39-23.16.06-36.12-.2-7.43,2.11-9.38,9.61-9.13,2.65.08,5.32,0,8,0,4.84.07,6.79,1.91,6.79,6.64s-.33,9.42-.31,14.13c0,7.1,2.28,9,9.28,8a25.39,25.39,0,0,1,28.16,20.52,68.39,68.39,0,0,1-.33,25.94c-3,14.79-12.89,23.64-27.94,25.44a51.56,51.56,0,0,1-29.23-5.29c-3.58-1.75-4.11-4.66-4.09-8.06,0-6.63,0-13.26,0-19.89Zm24.45,19.58c0,2.64,0,5.28,0,7.92,0,2.22-.24,4.61,2.53,5.46a6.47,6.47,0,0,0,7.19-2c4.61-5.19,4.55-18.91-.08-24a5.75,5.75,0,0,0-6.38-1.8c-2.53.78-3.22,2.79-3.24,5.16C309.23,398.7,309.25,401.78,309.23,404.86Z"/><path class="cls-1" d="M171,401c4.06-7.61,5.66-15.11,7.57-22.49,2.06-8,4-9.59,12.31-9.6,3.1,0,6.21,0,9.31.26,5,.37,6.5,2,5.18,6.84-1.65,6.09-3.82,12-5.91,18q-11.16,31.86-22.4,63.68c-2.53,7.19-4.72,8.71-12.21,8.79-4.3,0-8.49,0-12.49-2.08-3.16-1.68-4.5-3.7-3-7.09,1.38-3.09,2.83-6.15,4.2-9.24,4.37-9.82,4.57-19.59-.07-29.44-6.61-14-11-28.86-16.48-43.3-1.59-4.19-.48-5.83,3.86-6.24,3.53-.33,7.08-.54,10.62-.54,6.63,0,9,1.53,11.23,7.84C165.56,384.24,168.07,392.23,171,401Z"/><path class="cls-1" d="M95.71,367.81a83.27,83.27,0,0,1,8.38.67c10.93,2,16.9,9.73,17.81,23.13.35,5.29.5,10.6.46,15.9,0,4.68,1.48,8.37,5.72,10.65,2.82,1.5,3.75,3.91,3.8,6.95a22.68,22.68,0,0,1-2.9,11c-2.83,5.42-7.38,7-12.51,3.53-6.45-4.3-12.64-4-19.23-.71-18.1,9-35.84-8.58-34.72-23.33.85-11.39,7.13-19.05,18.4-21,4.06-.72,8.11-1.5,12.3-1.14,2,.17,3.94-.33,3.92-3,0-2.34-1.25-3.55-3.54-3.65-3.83-.19-7.66-.51-11.46.46-5.77,1.47-7.86.13-9.48-6-1.56-5.85.31-9.95,5.48-11.08C83.9,368.88,89.72,367.75,95.71,367.81Zm2.21,44.95c-.32-1.82.73-5.16-3.53-5.09s-7.25,2.86-7.2,6.7c.06,3.54,2.41,6,5.79,5.85C97.33,420,98.07,416.93,97.92,412.76Z"/><path class="cls-1" d="M247.53,441C226.4,441,211.63,425,213,403.69c.8-13.05,4.71-24.54,17-31,11.41-6,23.37-6.4,34.63.51,8.67,5.32,12.31,16.32,9.71,26.46-2.24,8.78-10,14.32-21.51,15.33-2.79.25-5.61.21-8.41.37-1.69.09-3.88-.42-4.23,2.08s1.47,3.82,3.61,4.23c5.27,1,10.56,1.21,15.75-.6,6.73-2.34,8.77-1.73,10.7,3.19,2.69,6.88,1.34,10.52-5,13.15A45.16,45.16,0,0,1,247.53,441Zm-2.95-41.17c4.68,0,6.94-1.55,6.76-4.92s-2.14-5-5.4-5.13a6.46,6.46,0,0,0-6.77,6.52C239.35,399.84,242,399.78,244.58,399.79Z"/><path class="cls-1" d="M21.35,410.35c0-4.85-.07-9.71,0-14.56.07-4-1.07-7-5.46-7.73-3.36-.54-4.31-2.59-4.08-5.66a29.21,29.21,0,0,0,.05-5.29c-.48-4.36.34-7.46,5.6-8.07,3.63-.43,4-3.83,3.86-6.54-.41-6.78,3.75-8.63,9.12-8.37,2.8.13,5.62-.12,8.41.07,4.56.31,6.57,2.62,6.57,7.19,0,7.21.42,7.65,7.28,7.73,4.92.06,6.33,1.47,6.3,6.34,0,.88-.1,1.76-.08,2.64.19,8.49.2,8.51-7.85,10.55-3.28.84-3.84,3.29-3.84,6.11,0,11.92,0,23.84.05,35.76.07,7.75-2,10.1-9.9,9.9-3.82-.1-7.62-.84-11.44-1.1-3.39-.22-4.56-2-4.52-5.18.09-7.93,0-15.86,0-23.79Z"/><path class="cls-1" d="M366.94,438.84c-5.57-.9-7.45-2.74-8.07-8.15-1-8.36-.68-16.77-.69-25.17q0-25.42,0-50.84c0-13.32,1.09-14.34,14.49-13.84,2.06.08,4.12.64,6.16.59,4.95-.11,5.82,2.93,5.82,6.89q0,42.23,0,84.44c0,1.92,0,3.84-1.45,5.38C377.77,438.37,372.29,437.14,366.94,438.84Z"/><path class="cls-1" d="M422.1,404.07c0,9.71-.1,19.43,0,29.14.06,3.83-1.51,5.89-5.29,6.11-4.41.25-8.84.51-13.26.48-4.14,0-6.59-2.25-6.91-6.48-.22-2.93-.45-5.87-.46-8.8,0-16,.1-32.09-.09-48.13-.05-4.52,1.28-6.84,6-8.07,5.92-1.55,11.38-.78,16.93.93,2.58.8,3.06,2.84,3.05,5.24C422.07,384.35,422.1,394.21,422.1,404.07Z"/><path class="cls-1" d="M409.87,362.57c-13.1.12-13.43-.2-13.71-13.1-.17-7.62,1.59-9.43,9.19-9.46,1.77,0,3.55-.08,5.32,0,10.09.65,15,7.8,12.15,17.48-1,3.25-2.85,5-6.3,5.05Z"/><path class="cls-1" d="M366.93,438.83c5.35-1.7,10.83-.47,16.24-.69C377.85,440.37,372.36,438.94,366.93,438.83Z"/></svg>